<?xml version="1.0" encoding="iso-8859-1"?>
<!DOCTYPE svg PUBLIC "-//W3C//DTD SVG 1.1//EN" "http://www.w3.org/Graphics/SVG/1.1/DTD/svg11.dtd">
<svg 
 version="1.1" xmlns="http://www.w3.org/2000/svg" xmlns:xlink="http://www.w3.org/1999/xlink" x="0px" y="0px" width="512px"
	 height="512px" viewBox="0 0 512 512" style="enable-background:new 0 0 512 512;" xml:space="preserve"
><g id="afcae5a789ccd549f9c6e2a2f8104169"><g></g><path style="display: inline; fill-rule: evenodd; clip-rule: evenodd;" d="M511.5,103.394c0,0-13.614,27.438-22.636,53.978
		c-9.668,28.423-14.791,56.091-14.791,56.091l-55.334,1.771l-6.521,250.298c0,0-32.469,21.745-71.484,27.509
		c-39.106,5.768-130.37,5.768-169.473,0c-39.011-5.764-71.49-27.509-71.49-27.509l-6.516-250.298l-55.33-1.771
		c0,0-5.127-27.667-14.795-56.091C14.107,130.832,0.5,103.394,0.5,103.394l183.89-88.76c0,0,10.854,17.325,29.967,26.797
		c16.5,8.184,41.643,8.704,41.643,8.704s25.138-0.52,41.64-8.704c19.107-9.473,29.97-26.797,29.97-26.797L511.5,103.394z"></path></g></svg>